<?xml version="1.0" standalone="no"?>
<!DOCTYPE svg PUBLIC "-//W3C//DTD SVG 20010904//EN"
 "http://www.w3.org/TR/2001/REC-SVG-20010904/DTD/svg10.dtd">
<svg version="1.0" xmlns="http://www.w3.org/2000/svg"
 width="512.000000pt" height="512.000000pt" viewBox="0 0 512.000000 512.000000"
 preserveAspectRatio="xMidYMid meet">
<metadata>
Created by potrace 1.11, written by Peter Selinger 2001-2013
</metadata>
<g transform="translate(0.000000,512.000000) scale(0.100000,-0.100000)"
fill="#000000" stroke="none">
<path d="M2436 4769 c-36 -9 -74 -23 -83 -30 -9 -8 -17 -12 -17 -9 -1 3 -41
-17 -88 -44 -48 -27 -85 -53 -82 -57 3 -5 -1 -6 -9 -4 -7 3 -30 -6 -51 -20
-20 -14 -38 -25 -40 -25 -2 0 -41 -22 -87 -50 -46 -27 -100 -56 -119 -65 -19
-9 -37 -19 -40 -23 -3 -4 -39 -25 -80 -46 -41 -22 -77 -42 -80 -46 -7 -8 -76
-40 -88 -40 -5 0 -27 -14 -48 -31 -22 -17 -48 -35 -59 -40 -11 -5 -27 -13 -35
-19 -8 -6 -45 -27 -82 -49 -37 -21 -64 -42 -60 -46 4 -5 1 -5 -6 -1 -7 4 -19
2 -27 -4 -8 -6 -29 -19 -47 -29 -18 -10 -51 -28 -73 -40 -22 -13 -80 -46 -130
-74 -49 -28 -92 -54 -95 -57 -3 -3 -17 -11 -32 -17 -16 -7 -28 -17 -28 -23 0
-6 -4 -9 -9 -6 -10 6 -83 -41 -126 -81 -93 -89 -135 -167 -162 -303 -3 -14 -5
-434 -5 -935 -1 -850 0 -914 17 -975 23 -81 48 -132 96 -193 59 -75 113 -113
334 -237 22 -12 69 -39 105 -60 36 -21 81 -47 100 -57 142 -80 308 -179 325
-194 12 -10 36 -24 55 -31 19 -6 71 -33 115 -58 44 -26 100 -58 125 -72 25
-14 63 -36 85 -48 22 -13 58 -33 80 -44 22 -12 42 -23 45 -26 6 -6 43 -27 95
-54 22 -12 42 -23 45 -26 6 -6 41 -26 110 -62 30 -16 59 -33 66 -38 6 -5 19
-11 30 -13 10 -1 24 -5 29 -9 6 -3 31 -9 58 -13 26 -4 50 -11 53 -16 7 -12 71
-11 93 1 10 5 33 12 50 15 75 13 301 124 301 147 0 6 3 9 6 5 6 -6 79 31 156
80 21 12 42 23 48 23 5 0 10 4 10 9 0 5 8 11 18 14 9 3 40 20 67 36 28 17 64
37 80 45 17 9 50 27 75 42 74 44 114 64 127 64 6 0 24 11 40 23 15 13 69 47
118 76 50 28 97 56 105 61 8 6 22 13 30 17 8 3 39 21 68 40 29 18 55 33 57 33
3 0 71 38 151 85 81 47 148 85 150 85 15 0 119 77 161 120 56 57 115 164 134
245 8 36 11 312 11 970 0 1008 3 961 -59 1090 -38 81 -137 176 -237 229 -27
14 -54 30 -60 35 -6 4 -36 22 -66 38 -80 44 -128 71 -190 108 -30 18 -77 45
-105 60 -171 95 -235 133 -268 161 -16 13 -33 24 -38 24 -16 0 -74 30 -208
108 -68 40 -125 72 -126 72 -2 0 -49 27 -105 60 -56 33 -103 60 -105 60 -1 0
-53 29 -114 65 -178 103 -309 131 -455 94z"/>
</g>
</svg>
