<?xml version="1.0" standalone="no"?>
<!DOCTYPE svg PUBLIC "-//W3C//DTD SVG 20010904//EN"
 "http://www.w3.org/TR/2001/REC-SVG-20010904/DTD/svg10.dtd">
<svg version="1.0" xmlns="http://www.w3.org/2000/svg"
 width="700.000000pt" height="700.000000pt" viewBox="0 0 700.000000 700.000000"
 preserveAspectRatio="xMidYMid meet">
<metadata>
Created by potrace 1.11, written by Peter Selinger 2001-2013
</metadata>
<g transform="translate(0.000000,700.000000) scale(0.100000,-0.100000)"
fill="#000000" stroke="none">
<path d="M3430 6538 c-145 -18 -201 -40 -420 -166 -58 -33 -104 -65 -103 -71
2 -6 -4 -8 -12 -5 -8 3 -27 -3 -42 -14 -16 -11 -49 -31 -73 -44 -25 -14 -61
-34 -80 -45 -19 -11 -62 -35 -95 -53 -33 -18 -89 -50 -124 -72 -34 -21 -65
-38 -66 -38 -2 0 -54 -29 -116 -65 -61 -36 -113 -65 -115 -65 -1 0 -13 -4 -26
-9 -13 -5 -26 -9 -31 -10 -4 0 -21 -13 -37 -28 -17 -16 -56 -41 -88 -58 -31
-16 -59 -32 -62 -35 -3 -3 -22 -14 -42 -25 -20 -10 -34 -23 -31 -28 3 -6 1 -7
-5 -3 -6 3 -35 -8 -64 -25 -29 -18 -78 -45 -108 -62 -30 -17 -66 -37 -80 -47
-14 -9 -46 -27 -72 -41 -27 -13 -48 -27 -48 -31 0 -5 -5 -8 -11 -8 -7 0 -44
-19 -83 -41 -39 -23 -96 -55 -126 -72 -30 -17 -57 -33 -60 -36 -3 -3 -23 -15
-45 -26 -100 -49 -230 -150 -218 -168 3 -6 2 -7 -4 -4 -6 4 -24 -14 -42 -38
-17 -24 -38 -50 -45 -58 -14 -13 -83 -179 -92 -220 -10 -42 -19 -289 -11 -294
4 -2 5 -9 2 -14 -5 -7 -9 -443 -4 -466 1 -5 1 -12 0 -17 -6 -28 -2 -657 4
-665 3 -6 3 -11 -2 -11 -6 0 -8 -408 -2 -430 1 -3 1 -9 0 -14 -4 -18 0 -651 4
-676 2 -14 4 -33 4 -43 1 -10 5 -15 11 -12 5 3 7 0 4 -9 -11 -28 59 -202 76
-191 6 3 7 0 5 -7 -7 -18 54 -100 67 -91 7 3 8 1 4 -6 -5 -7 8 -27 33 -51 23
-22 43 -40 45 -40 3 0 17 -11 32 -25 15 -14 34 -23 41 -20 8 2 12 1 9 -3 -7
-12 223 -143 237 -135 7 3 9 2 4 -2 -7 -9 128 -94 151 -95 6 0 12 -4 12 -9 0
-10 61 -37 75 -33 6 2 7 0 2 -4 -4 -4 19 -22 50 -39 76 -41 145 -80 218 -123
33 -19 85 -48 115 -65 30 -17 67 -38 82 -49 14 -10 31 -18 37 -18 6 0 15 -9
21 -20 6 -11 17 -20 25 -20 8 0 15 -4 15 -10 0 -5 8 -10 18 -10 9 0 30 -7 46
-15 76 -40 131 -70 136 -75 3 -3 25 -16 50 -29 25 -13 53 -31 62 -39 10 -8 24
-12 33 -9 8 4 14 2 12 -4 -1 -5 25 -24 58 -42 33 -17 62 -35 65 -38 3 -4 32
-21 65 -39 33 -17 87 -48 120 -67 63 -37 112 -65 193 -109 26 -14 52 -31 59
-36 7 -5 18 -6 24 -2 7 4 9 3 6 -3 -10 -16 155 -101 228 -118 74 -17 122 -27
137 -28 9 -1 15 -4 12 -8 -2 -4 3 -10 12 -13 11 -4 15 -2 11 8 -4 10 -1 13 8
9 8 -3 13 -9 10 -13 -4 -7 24 -6 33 0 1 2 5 3 10 4 4 1 12 4 17 8 6 3 28 9 50
13 76 13 170 47 257 93 48 25 84 50 82 54 -3 5 -2 7 3 6 17 -6 92 35 86 46 -3
6 -3 8 2 4 4 -4 24 2 44 12 103 56 156 90 153 100 -1 7 2 9 8 5 11 -7 119 50
132 69 4 6 8 7 8 2 0 -5 6 -4 13 2 6 5 39 25 72 42 33 18 65 37 72 42 7 5 27
18 45 27 18 10 56 30 83 46 28 16 67 38 88 49 20 11 37 23 37 27 0 4 17 10 37
14 20 3 55 21 77 40 23 18 68 48 101 66 33 18 63 38 67 43 4 6 8 7 8 3 0 -5
12 0 28 11 15 10 83 51 152 89 305 171 370 210 363 218 -5 4 -2 5 5 1 7 -4 19
-3 26 3 12 10 125 75 189 108 15 8 27 19 27 24 0 5 3 8 8 7 12 -4 72 32 72 43
0 6 4 8 9 5 12 -8 43 29 34 39 -5 4 -3 5 3 2 19 -11 152 132 137 146 -3 4 -2
7 4 7 5 0 20 21 32 48 12 26 28 58 35 72 33 62 46 174 46 375 0 110 1 247 1
305 0 90 -1 1166 -2 1195 0 6 0 179 1 385 1 206 -1 398 -5 425 -7 54 -51 194
-66 210 -5 5 -9 17 -9 27 0 10 -4 18 -10 18 -5 0 -10 5 -10 11 0 14 -131 172
-137 165 -2 -2 -17 8 -31 23 -22 23 -174 121 -187 121 -2 0 -39 21 -82 46
-110 66 -163 94 -163 86 0 -4 -4 -2 -8 5 -10 16 -179 112 -186 105 -3 -3 -6
-1 -6 5 0 5 -19 19 -42 32 -24 12 -50 26 -58 31 -8 5 -67 39 -130 75 -63 36
-122 70 -130 75 -8 6 -26 16 -40 22 -14 7 -33 21 -42 31 -10 11 -22 16 -29 11
-7 -4 -9 -3 -5 4 3 6 -9 15 -31 23 -21 7 -39 11 -41 10 -1 -1 -8 3 -15 9 -17
14 -87 60 -92 60 -2 0 -30 15 -62 34 -32 18 -79 45 -104 58 -77 43 -93 53
-109 64 -8 7 -42 26 -75 43 -33 18 -75 41 -94 52 -147 87 -303 175 -336 192
-22 10 -48 26 -57 35 -10 8 -18 11 -18 6 0 -5 -4 -3 -9 4 -4 7 -14 15 -22 16
-8 2 -27 9 -44 15 -113 48 -222 64 -335 49z m-2467 -4573 c-3 -9 -8 -14 -10
-11 -3 3 -2 9 2 15 9 16 15 13 8 -4z m4567 -405 c0 -5 -2 -10 -4 -10 -3 0 -8
5 -11 10 -3 6 -1 10 4 10 6 0 11 -4 11 -10z"/>
</g>
</svg>
