<?xml version="1.0" encoding="UTF-8" standalone="no"?>
<!DOCTYPE svg PUBLIC "-//W3C//DTD SVG 1.1//EN" "http://www.w3.org/Graphics/SVG/1.1/DTD/svg11.dtd">
<svg width="100%" height="100%" viewBox="0 0 500 500" version="1.1" xmlns="http://www.w3.org/2000/svg" xmlns:xlink="http://www.w3.org/1999/xlink" xml:space="preserve" xmlns:serif="http://www.serif.com/" style="fill-rule:evenodd;clip-rule:evenodd;stroke-linejoin:round;stroke-miterlimit:2;">
    <g transform="matrix(2.75043,0,0,2.75043,40.1419,32.0281)">
        <path d="M0,30.1L0,128.4L76.3,158.5L152.6,128.4L152.6,30.1L76.3,0L0,30.1ZM141.2,32.2L76.3,58.2L11.4,32.2L76.3,6.6L141.2,32.2ZM84.5,97.2L96.5,92.3L96.5,66.4L84.5,61.5L146.4,36.8L146.4,121.9L84.5,97.2ZM68.1,61.5L56.1,66.4L56.1,92.3L68.1,97.2L6.1,121.9L6.1,36.8L68.1,61.5ZM90.4,70.5L90.4,88.2L76.3,93.9L62.2,88.2L62.2,70.5L76.3,64.8L90.4,70.5ZM11.4,126.4L76.3,100.5L141.2,126.4L76.3,152L11.4,126.4Z" style="fill:rgb(244,244,244);fill-rule:nonzero;"/>
    </g>
</svg>
