<?xml version="1.0" encoding="UTF-8" standalone="no"?>
<!DOCTYPE svg PUBLIC "-//W3C//DTD SVG 1.1//EN" "http://www.w3.org/Graphics/SVG/1.1/DTD/svg11.dtd">
<svg width="100%" height="100%" viewBox="0 0 512 512" version="1.1" xmlns="http://www.w3.org/2000/svg" xmlns:xlink="http://www.w3.org/1999/xlink" xml:space="preserve" xmlns:serif="http://www.serif.com/" style="fill-rule:evenodd;clip-rule:evenodd;stroke-linejoin:round;stroke-miterlimit:2;">
    <path d="M19.672,337.443L19.672,26L479.672,26L479.672,486L168.229,486L19.672,337.443Z" style="fill:white;"/>
    <g transform="matrix(0.015625,0,0,0.015625,2.68072,4.708)">
        <g id="g16">
            <path id="symbol" d="M23603.7,14049.8C23929.8,11869.7 22269.9,10697.7 20000.2,9915.9L20736.5,6962.69L18938.8,6514.69L18222,9390.08C17749.5,9272.32 17264.1,9161.22 16781.8,9051.14L17503.7,6156.8L15707.1,5708.8L14970.3,8660.99C14579.1,8571.9 14195.1,8483.84 13822.4,8391.17L13824.5,8381.95L11345.4,7762.94L10867.1,9682.94C10867.1,9682.94 12200.9,9988.61 12172.7,10007.6C12900.8,10189.3 13032.4,10671.1 13010.4,11053.1L12171.7,14417.4C12221.9,14430.2 12286.9,14448.6 12358.6,14477.3C12298.7,14462.5 12234.7,14446.1 12168.7,14430.2L10993.1,19143.2C10904,19364.4 10678.2,19696.1 10169.3,19570.2C10187.2,19596.3 8862.67,19244 8862.67,19244L7970.25,21301.8L10309.6,21884.9C10744.8,21994 11171.3,22108.2 11591.1,22215.7L10847.2,25202.7L12642.8,25650.7L13379.5,22695.4C13870,22828.5 14346.2,22951.4 14812.1,23067.1L14077.9,26008.6L15875.5,26456.6L16619.5,23475.2C19684.8,24055.3 21989.8,23821.3 22960.1,21048.8C23741.9,18816.5 22921.2,17528.8 21308.4,16689.2C22482.9,16418.3 23367.6,15645.7 23603.7,14049.8ZM19496.4,19809.3C18940.9,22041.6 15182.3,20834.8 13963.7,20532.2L14950.9,16575C16169.4,16879.1 20077,17481.2 19496.4,19809.3ZM20052.4,14017.5C19545.5,16048.1 16417.2,15016.4 15402.4,14763.5L16297.4,11174.4C17312.2,11427.3 20580.3,11899.4 20052.4,14017.5Z" style="fill:rgb(0,154,254);fill-rule:nonzero;"/>
        </g>
    </g>
</svg>
