<?xml version="1.0" encoding="UTF-8" standalone="no"?>
<!DOCTYPE svg PUBLIC "-//W3C//DTD SVG 1.1//EN" "http://www.w3.org/Graphics/SVG/1.1/DTD/svg11.dtd">
<svg width="100%" height="100%" viewBox="0 0 45 45" version="1.1" xmlns="http://www.w3.org/2000/svg" xmlns:xlink="http://www.w3.org/1999/xlink" xml:space="preserve" xmlns:serif="http://www.serif.com/" style="fill-rule:evenodd;clip-rule:evenodd;stroke-linejoin:round;stroke-miterlimit:2;">
    <g transform="matrix(1.34104,0,0,1.34363,2.5,2.46139)">
        <g id="Page-1">
            <g id="Mobile-Menu-Expand">
                <g id="Group-2">
                    <g id="Brand-App-Icon-Wealth--iOS-" serif:id="Brand/App-Icon-Wealth-[iOS]">
                        <g id="Brand-Profile-Pic" serif:id="Brand/Profile-Pic">
                            <g id="Brand-Logo-Icon" serif:id="Brand/Logo-Icon">
                                <path id="Shape" d="M18.47,0.029L16.023,1.414L16.023,13.187L17.359,13.945L17.359,4.979L21.946,7.578L21.95,7.576L22.841,8.08L23.584,7.661L23.584,6.954L17.359,3.431L17.359,2.206L18.47,1.577L24.917,5.23L24.917,8.481L21.822,10.225L21.717,10.173C21.529,10.081 21.334,10.034 21.138,10.034C20.401,10.034 19.802,10.639 19.802,11.384C19.802,12.128 20.401,12.734 21.138,12.734C21.821,12.734 22.389,12.213 22.459,11.522L22.471,11.405L25.595,9.646L28.491,11.287L28.491,18.55L25.591,20.191L13.805,13.511L13.805,1.415L11.358,0.029L3.575,4.439L3.575,8.463L0,10.486L0,19.332L3.575,21.357L3.575,25.389L11.358,29.799L13.805,28.413L13.805,16.615L12.468,15.858L12.468,24.849L6.987,21.748L6.243,22.166L6.243,22.874L12.468,26.397L12.468,27.621L11.358,28.251L4.911,24.598L4.911,21.346L8.006,19.603L8.11,19.654C8.299,19.747 8.494,19.794 8.689,19.794C9.426,19.794 10.026,19.188 10.026,18.444C10.026,17.699 9.426,17.094 8.689,17.094C8.007,17.094 7.439,17.615 7.368,18.306L7.357,18.422L4.233,20.182L1.336,18.54L1.336,11.278L4.236,9.637L16.023,16.316L16.023,28.413L18.47,29.799L26.253,25.389L26.253,21.364L29.828,19.342L29.828,10.496L26.253,8.471L26.253,4.439L18.47,0.029ZM4.911,5.23L11.358,1.577L12.468,2.206L12.468,3.431L4.911,7.707L4.911,5.23ZM5.604,8.863L12.468,4.979L12.468,12.753L5.604,8.863ZM17.359,17.074L24.224,20.965L17.359,24.849L17.359,17.074ZM17.359,27.621L17.359,26.397L24.917,22.12L24.917,24.598L18.47,28.251L17.359,27.621Z" style="fill:white;"/>
                            </g>
                        </g>
                    </g>
                </g>
            </g>
        </g>
    </g>
</svg>
